<svg fill="none" height="24" viewBox="0 0 24 24" width="24" xmlns="http://www.w3.org/2000/svg"><path clip-rule="evenodd" d="m17.2994 10.4527 1.9273.315c.1579.0258.2736.1621.2733.3219v1.7934c0 .1582-.1135.2938-.2697.3212l-1.9299.3388c-.1119.3868-.2655.7592-.4589 1.1113l1.1408 1.5839c.0936.1297.0789.3081-.034.4213l-1.2679 1.2688c-.1122.1118-.2883.1278-.4181.0362l-1.5996-1.1221c-.3528.1963-.7275.3528-1.1185.4679l-.3408 1.9207c-.0274.1555-.1628.269-.3209.269h-1.7937c-.1594 0-.2954-.1151-.3212-.272l-.3183-1.9112c-.3903-.1128-.767-.2683-1.12345-.4643l-1.58818 1.1123c-.12946.091-.30589.0753-.41775-.0365l-1.26794-1.2688c-.11251-.1132-.12718-.2909-.03457-.4204l1.12217-1.5694c-.19795-.3581-.35514-.736-.46896-1.1283l-1.90157-.3372c-.15556-.0277-.26905-.163-.26905-.3212v-1.7934c0-.1592.11544-.2955.27263-.3216l1.90158-.3166c.11447-.3932.27165-.77118.46895-1.12825l-1.10846-1.58576c-.09099-.12946-.07533-.30554.03652-.41739l1.26761-1.2675c.11317-.1125.29025-.1275.42037-.03457l1.57513 1.125c.35384-.19369.72957-.34793 1.12087-.46043l.3118-1.90891c.0257-.15783.162-.27359.3218-.27359h1.7937c.1585 0 .2938.11413.3212.27l.3362 1.91935c.3891.11315.7641.26902 1.1192.46532l1.5794-1.1351c.1298-.09359.3079-.07892.421.03391l1.2683 1.2675c.1119.11217.1275.28859.0365.41804l-1.1251 1.60337c.1931.35185.3473.72361.4602 1.11031zm-7.58215 1.5473c0 1.2607 1.02205 2.2826 2.28285 2.2826 1.2607 0 2.2828-1.0219 2.2828-2.2826 0-1.2606-1.0221-2.28258-2.2828-2.28258-1.2608 0-2.28285 1.02198-2.28285 2.28258z" fill-rule="evenodd" stroke="#000"/></svg>